<?xml version="1.0" encoding="UTF-8"?>
<svg width="1200pt" height="1200pt" version="1.1" viewBox="0 0 1200 1200" xmlns="http://www.w3.org/2000/svg">
 <g fill="#00449e">
  <path d="m600 0c-78.793 0-156.82 15.52-229.61 45.672s-138.94 74.348-194.65 130.07c-55.719 55.715-99.914 121.86-130.07 194.65s-45.672 150.82-45.672 229.61c0 159.13 63.215 311.74 175.74 424.26 112.52 112.52 265.13 175.73 424.27 175.73 159.13 0 311.74-63.215 424.26-175.74 112.52-112.52 175.74-265.13 175.74-424.26 0-159.13-63.215-311.74-175.73-424.27-112.52-112.52-265.13-175.74-424.26-175.74zm0 67.762c69.121 0 137.56 13.766 201.42 40.516 63.859 26.746 121.88 65.953 170.76 115.38s87.645 108.1 114.09 172.67c26.453 64.574 40.066 133.79 40.066 203.68 0 141.16-55.457 276.53-154.16 376.34-98.707 99.816-232.58 155.89-372.18 155.89-69.121 0-137.57-13.766-201.43-40.516-63.855-26.746-121.88-65.949-170.76-115.37-48.875-49.422-87.645-108.1-114.1-172.67-26.449-64.574-40.066-133.79-40.066-203.68 0-69.898 13.613-139.11 40.066-203.68 26.449-64.574 65.219-123.25 114.1-172.68 48.875-49.422 106.9-88.625 170.76-115.38 63.859-26.746 132.3-40.512 201.43-40.512z"/>
  <path d="m860.44 234.7c34.914-7.4141 69.223 14.82 76.66 49.711 7.3984 34.867-14.82 69.164-49.711 76.59-34.875 7.4727-69.223-14.797-76.637-49.688-7.4219-34.875 14.832-69.184 49.688-76.613z"/>
  <path d="m940.26 687.78c-12.938-9.0391-101.91-72.004-101.91-72.004l12.266-43.34h88.441c18.582 0 33.652-15.07 33.652-33.645 0-18.582-15.07-33.652-33.652-33.652h-69.398l17.488-61.773c5.9492-23.645-4.9883-45.797-16.188-55.895-10.672-10.664-31.867-20.117-48.184-18.629-15.637 1.3086-29.539 7.7227-40.516 17.281-1.4219 1.2539-5.1914 4.7383-5.4648 5.0469l-175.2 201.44c-12.168 14.047-10.656 35.301 3.3945 47.457 6.3711 5.5156 14.207 8.2305 22.023 8.2305 9.418 0 18.785-3.9375 25.438-11.617l60.562-69.465c-0.67969 3.2656-1.2773 6.5312-1.6484 9.5508-0.96094 3.168-2.7578 16.98-2.4492 31.27l6.1367 175.23-105.43 96.566c-38.309 33.266 7.7852 93.035 52.793 56.52l120.67-109.41c3.9375-2.7422 15.898-12.543 15.898-25.543 0-6.1875 0.097657-105.31 0.097657-105.31l97.156 55.227 0.46094 162.89c0 49.438 73.426 48.336 73.426-0.35547l0.36328-173.77c-0.77344-25.934-12.934-40.203-30.23-52.301z"/>
  <path d="m473.38 535.02 76.91 69.926 29.516 23.238-36.508-93.164z"/>
  <path d="m458.15 635.07-33.258 33.508-100.67 15.895-39.699 55.508-56.785 38.359v92.977l54.523 79.508h192.97l104.56-188.16-0.003906-134.49zm-96.234 245.86c-5.5234 0.007812-11.48-0.79297-17.805-2.7266-32.867-10.043-34.172-43.703-30.266-60.094l7.9648 1.8984 7.9727 1.8672c-0.76172 3.332-6.7695 32.77 19.129 40.664 15.438 4.7461 27.93 0.11328 35.676-4.6016l8.5234 13.98c-7.457 4.5234-18.121 9.0117-31.195 9.0117zm11.402-134.39c-17.402 9.6719-16.801 28.098-16.793 28.285l-16.359 0.72656c-0.054687-1.1641-0.96094-28.785 25.188-43.316 24.781-13.785 45.434 4.5664 52.898 16.195l-13.762 8.8711c-1.3789-2.125-14.016-20.336-31.172-10.762zm86.945 108.55-15.266-5.9102c3.7344-9.6367 6.0156-23.043-4.3164-32.195-14.66-12.992-30.984-4.0117-31.152-3.9297l-8.0469-14.27c1.0742-0.60547 26.766-14.73 50.059 5.9414 13.559 12.012 16.668 29.898 8.7227 50.363zm57.398-108.64-15.469-5.375c0.95312-2.8203 8.7148-27.797-14.254-36.379-2.8711-1.082-5.7656-1.8359-8.5859-2.2891l2.5391-16.172c3.8984 0.60547 7.8594 1.6641 11.773 3.1289 30.742 11.484 29.133 42.363 23.996 57.086z"/>
 </g>
</svg>
